<svg xmlns="http://www.w3.org/2000/svg" width="800" height="800" viewBox="0 0 39 39" shape-rendering="crispEdges"><path fill="#FFFFFF" d="M0 0h39v39H0z"/><path stroke="#0F141E" d="M3 3.5h7m4 0h3m2 0h3m1 0h1m1 0h1m1 0h1m1 0h7M3 4.5h1m5 0h1m2 0h3m4 0h3m1 0h1m1 0h1m1 0h1m1 0h1m5 0h1M3 5.5h1m1 0h3m1 0h1m1 0h1m3 0h2m2 0h6m1 0h2m1 0h1m1 0h3m1 0h1M3 6.5h1m1 0h3m1 0h1m1 0h1m3 0h2m1 0h5m1 0h1m1 0h1m2 0h1m1 0h3m1 0h1M3 7.5h1m1 0h3m1 0h1m2 0h2m2 0h2m1 0h1m4 0h1m4 0h1m1 0h3m1 0h1M3 8.5h1m5 0h1m3 0h1m1 0h2m2 0h2m3 0h1m1 0h2m1 0h1m5 0h1M3 9.5h7m1 0h1m1 0h1m1 0h1m1 0h1m1 0h1m1 0h1m1 0h1m1 0h1m1 0h1m1 0h7M13 10.5h1m1 0h2m5 0h2m3 0h1M6 11.5h2m1 0h2m1 0h3m4 0h1m3 0h1m8 0h2M4 12.5h2m1 0h1m2 0h1m1 0h1m2 0h1m3 0h3m3 0h2m1 0h1m1 0h2m1 0h1M4 13.5h1m1 0h2m1 0h1m1 0h2m1 0h3m2 0h1m2 0h1m1 0h1m1 0h3m1 0h1m1 0h1m1 0h2M4 14.5h1m1 0h1m1 0h1m1 0h1m1 0h1m1 0h3m2 0h1m5 0h1m4 0h2m1 0h1m1 0h1M3 15.5h2m1 0h7m1 0h2m1 0h3m3 0h3m1 0h1m1 0h2m1 0h1m2 0h1M8 16.5h1m2 0h1m3 0h3m1 0h1m1 0h2m1 0h1m1 0h3m4 0h2M3 17.5h3m1 0h3m1 0h3m3 0h1m1 0h1m1 0h1m8 0h3M10 18.5h2m2 0h1m4 0h4m5 0h3m1 0h4M5 19.5h1m2 0h2m3 0h1m2 0h1m1 0h4m1 0h1m2 0h1m1 0h5m2 0h1M3 20.5h1m1 0h1m1 0h1m3 0h1m1 0h2m2 0h2m1 0h3m1 0h2m1 0h6m2 0h1M3 21.5h2m1 0h1m1 0h2m2 0h1m1 0h3m1 0h2m2 0h1m1 0h1m1 0h1m3 0h4m1 0h1M3 22.5h2m2 0h1m3 0h3m1 0h2m1 0h1m2 0h1m3 0h4m2 0h4M3 23.5h2m1 0h2m1 0h2m3 0h1m2 0h4m2 0h1m6 0h1m1 0h1m1 0h1M3 24.5h2m2 0h2m3 0h2m1 0h3m1 0h1m1 0h1m3 0h2m3 0h5M3 25.5h1m1 0h1m3 0h1m1 0h5m1 0h1m1 0h2m2 0h4m2 0h1m3 0h3M3 26.5h1m1 0h2m1 0h1m1 0h3m8 0h3m2 0h2m5 0h2M3 27.5h8m1 0h1m1 0h3m1 0h4m4 0h7m1 0h2M11 28.5h1m1 0h3m3 0h1m1 0h1m1 0h3m1 0h1m3 0h1m1 0h1M3 29.5h7m1 0h2m3 0h3m1 0h1m1 0h1m3 0h2m1 0h1m1 0h2M3 30.5h1m5 0h1m5 0h1m1 0h4m1 0h4m1 0h1m3 0h4M3 31.5h1m1 0h3m1 0h1m1 0h2m1 0h2m2 0h1m2 0h1m2 0h9m1 0h1M3 32.5h1m1 0h3m1 0h1m1 0h1m3 0h1m1 0h4m1 0h1m2 0h1m2 0h1m1 0h1m2 0h1m1 0h1M3 33.5h1m1 0h3m1 0h1m2 0h1m3 0h1m3 0h2m1 0h2m1 0h2m3 0h1m1 0h3M3 34.5h1m5 0h1m3 0h1m5 0h4m1 0h1m7 0h4M3 35.5h7m2 0h2m2 0h2m1 0h2m1 0h2m1 0h4m2 0h1"/></svg>
